<mxfile host="app.diagrams.net" modified="2022-08-24T06:52:33.317Z" agent="5.0 (Windows NT 10.0; Win64; x64) AppleWebKit/537.36 (KHTML, like Gecko) Chrome/103.0.5060.134 Safari/537.36 OPR/89.0.4447.83" etag="y3KhM64YT8CsJWU3kLPG" version="20.2.6" type="github">
  <diagram id="R2lEEEUBdFMjLlhIrx00" name="Page-1">
    <mxGraphModel dx="1382" dy="795" grid="1" gridSize="10" guides="1" tooltips="1" connect="1" arrows="1" fold="1" page="1" pageScale="1" pageWidth="850" pageHeight="1100" math="0" shadow="0" extFonts="Permanent Marker^https://fonts.googleapis.com/css?family=Permanent+Marker">
      <root>
        <mxCell id="0" />
        <mxCell id="1" parent="0" />
        <mxCell id="C-vyLk0tnHw3VtMMgP7b-13" value="Candidate Details" style="shape=table;startSize=30;container=1;collapsible=1;childLayout=tableLayout;fixedRows=1;rowLines=0;fontStyle=1;align=center;resizeLast=1;" parent="1" vertex="1" collapsed="1">
          <mxGeometry x="165" y="160" width="140" height="30" as="geometry">
            <mxRectangle x="320" y="120" width="250" height="690" as="alternateBounds" />
          </mxGeometry>
        </mxCell>
        <mxCell id="C-vyLk0tnHw3VtMMgP7b-14" value="" style="shape=partialRectangle;collapsible=0;dropTarget=0;pointerEvents=0;fillColor=none;points=[[0,0.5],[1,0.5]];portConstraint=eastwest;top=0;left=0;right=0;bottom=1;" parent="C-vyLk0tnHw3VtMMgP7b-13" vertex="1">
          <mxGeometry y="30" width="250" height="30" as="geometry" />
        </mxCell>
        <mxCell id="C-vyLk0tnHw3VtMMgP7b-15" value="PK" style="shape=partialRectangle;overflow=hidden;connectable=0;fillColor=none;top=0;left=0;bottom=0;right=0;fontStyle=1;" parent="C-vyLk0tnHw3VtMMgP7b-14" vertex="1">
          <mxGeometry width="30" height="30" as="geometry">
            <mxRectangle width="30" height="30" as="alternateBounds" />
          </mxGeometry>
        </mxCell>
        <mxCell id="C-vyLk0tnHw3VtMMgP7b-16" value="id int NOT NULL " style="shape=partialRectangle;overflow=hidden;connectable=0;fillColor=none;top=0;left=0;bottom=0;right=0;align=left;spacingLeft=6;fontStyle=5;" parent="C-vyLk0tnHw3VtMMgP7b-14" vertex="1">
          <mxGeometry x="30" width="220" height="30" as="geometry">
            <mxRectangle width="220" height="30" as="alternateBounds" />
          </mxGeometry>
        </mxCell>
        <mxCell id="C-vyLk0tnHw3VtMMgP7b-17" value="" style="shape=partialRectangle;collapsible=0;dropTarget=0;pointerEvents=0;fillColor=none;points=[[0,0.5],[1,0.5]];portConstraint=eastwest;top=0;left=0;right=0;bottom=0;" parent="C-vyLk0tnHw3VtMMgP7b-13" vertex="1">
          <mxGeometry y="60" width="250" height="30" as="geometry" />
        </mxCell>
        <mxCell id="C-vyLk0tnHw3VtMMgP7b-18" value="FK1" style="shape=partialRectangle;overflow=hidden;connectable=0;fillColor=none;top=0;left=0;bottom=0;right=0;" parent="C-vyLk0tnHw3VtMMgP7b-17" vertex="1">
          <mxGeometry width="30" height="30" as="geometry">
            <mxRectangle width="30" height="30" as="alternateBounds" />
          </mxGeometry>
        </mxCell>
        <mxCell id="C-vyLk0tnHw3VtMMgP7b-19" value="register_id int(20) NOT NULL" style="shape=partialRectangle;overflow=hidden;connectable=0;fillColor=none;top=0;left=0;bottom=0;right=0;align=left;spacingLeft=6;" parent="C-vyLk0tnHw3VtMMgP7b-17" vertex="1">
          <mxGeometry x="30" width="220" height="30" as="geometry">
            <mxRectangle width="220" height="30" as="alternateBounds" />
          </mxGeometry>
        </mxCell>
        <mxCell id="C-vyLk0tnHw3VtMMgP7b-20" value="" style="shape=partialRectangle;collapsible=0;dropTarget=0;pointerEvents=0;fillColor=none;points=[[0,0.5],[1,0.5]];portConstraint=eastwest;top=0;left=0;right=0;bottom=0;" parent="C-vyLk0tnHw3VtMMgP7b-13" vertex="1">
          <mxGeometry y="90" width="250" height="590" as="geometry" />
        </mxCell>
        <mxCell id="C-vyLk0tnHw3VtMMgP7b-21" value="" style="shape=partialRectangle;overflow=hidden;connectable=0;fillColor=none;top=0;left=0;bottom=0;right=0;" parent="C-vyLk0tnHw3VtMMgP7b-20" vertex="1">
          <mxGeometry width="30" height="590" as="geometry">
            <mxRectangle width="30" height="590" as="alternateBounds" />
          </mxGeometry>
        </mxCell>
        <mxCell id="C-vyLk0tnHw3VtMMgP7b-22" value="fullname varchar(255) NOT NULL&#xa;&#xa;ic_number varchar(15) NOT NULL&#xa;&#xa;nationality char(50) NOT NULL&#xa;&#xa;marital char(10) NOT NULL&#xa;&#xa;birth_place varchar(50) NOT NULL&#xa;&#xa;birth_date date NOT NULL&#xa;&#xa;gender char(10) NOT NULL&#xa;&#xa;email_1 varchar(255) NOT NULL&#xa;&#xa;email_2 varchar(255)Â NOT NULL&#xa;&#xa;tel_office varchar(20) NULL&#xa;&#xa;tel_phone varchar(20) NOT NULL&#xa;&#xa;mail_addr char(255) NOT NULL&#xa;&#xa;coe_rg char(255) NOT NULL&#xa;&#xa;phd_field char(255) NOT NULL&#xa;&#xa;project_title char(255) NOT NULL&#xa;&#xa;visit_datestart date NULL&#xa;&#xa;visit_dateend date NULL&#xa;&#xa;hired_malaysia bit(1) NOT NULL&#xa;&#xa;hired_datestart date NULL&#xa;&#xa;hired_dateend date NULL&#xa;&#xa;last_employer char(255) NULL" style="shape=partialRectangle;overflow=hidden;connectable=0;fillColor=none;top=0;left=0;bottom=0;right=0;align=left;spacingLeft=6;" parent="C-vyLk0tnHw3VtMMgP7b-20" vertex="1">
          <mxGeometry x="30" width="220" height="590" as="geometry">
            <mxRectangle width="220" height="590" as="alternateBounds" />
          </mxGeometry>
        </mxCell>
        <mxCell id="C-vyLk0tnHw3VtMMgP7b-23" value="Register/Login" style="shape=table;startSize=30;container=1;collapsible=1;childLayout=tableLayout;fixedRows=1;rowLines=0;fontStyle=1;align=center;resizeLast=1;" parent="1" vertex="1" collapsed="1">
          <mxGeometry x="5" y="160" width="120" height="30" as="geometry">
            <mxRectangle x="40" y="120" width="250" height="170" as="alternateBounds" />
          </mxGeometry>
        </mxCell>
        <mxCell id="C-vyLk0tnHw3VtMMgP7b-24" value="" style="shape=partialRectangle;collapsible=0;dropTarget=0;pointerEvents=0;fillColor=none;points=[[0,0.5],[1,0.5]];portConstraint=eastwest;top=0;left=0;right=0;bottom=1;" parent="C-vyLk0tnHw3VtMMgP7b-23" vertex="1">
          <mxGeometry y="30" width="250" height="30" as="geometry" />
        </mxCell>
        <mxCell id="C-vyLk0tnHw3VtMMgP7b-25" value="PK" style="shape=partialRectangle;overflow=hidden;connectable=0;fillColor=none;top=0;left=0;bottom=0;right=0;fontStyle=1;" parent="C-vyLk0tnHw3VtMMgP7b-24" vertex="1">
          <mxGeometry width="30" height="30" as="geometry">
            <mxRectangle width="30" height="30" as="alternateBounds" />
          </mxGeometry>
        </mxCell>
        <mxCell id="C-vyLk0tnHw3VtMMgP7b-26" value="id int NOT NULL " style="shape=partialRectangle;overflow=hidden;connectable=0;fillColor=none;top=0;left=0;bottom=0;right=0;align=left;spacingLeft=6;fontStyle=5;" parent="C-vyLk0tnHw3VtMMgP7b-24" vertex="1">
          <mxGeometry x="30" width="220" height="30" as="geometry">
            <mxRectangle width="220" height="30" as="alternateBounds" />
          </mxGeometry>
        </mxCell>
        <mxCell id="C-vyLk0tnHw3VtMMgP7b-27" value="" style="shape=partialRectangle;collapsible=0;dropTarget=0;pointerEvents=0;fillColor=none;points=[[0,0.5],[1,0.5]];portConstraint=eastwest;top=0;left=0;right=0;bottom=0;" parent="C-vyLk0tnHw3VtMMgP7b-23" vertex="1">
          <mxGeometry y="60" width="250" height="100" as="geometry" />
        </mxCell>
        <mxCell id="C-vyLk0tnHw3VtMMgP7b-28" value="" style="shape=partialRectangle;overflow=hidden;connectable=0;fillColor=none;top=0;left=0;bottom=0;right=0;" parent="C-vyLk0tnHw3VtMMgP7b-27" vertex="1">
          <mxGeometry width="30" height="100" as="geometry">
            <mxRectangle width="30" height="100" as="alternateBounds" />
          </mxGeometry>
        </mxCell>
        <mxCell id="C-vyLk0tnHw3VtMMgP7b-29" value="username varchar(50) NOT NULL&#xa;&#xa;password varchar(255) NOT NULL&#xa;&#xa;svstaffno int(6) NOT NULL" style="shape=partialRectangle;overflow=hidden;connectable=0;fillColor=none;top=0;left=0;bottom=0;right=0;align=left;spacingLeft=6;" parent="C-vyLk0tnHw3VtMMgP7b-27" vertex="1">
          <mxGeometry x="30" width="220" height="100" as="geometry">
            <mxRectangle width="220" height="100" as="alternateBounds" />
          </mxGeometry>
        </mxCell>
        <mxCell id="Tg3tCqWO-wnEFZZeCLN1-35" style="edgeStyle=orthogonalEdgeStyle;rounded=0;orthogonalLoop=1;jettySize=auto;html=1;exitX=1;exitY=0.5;exitDx=0;exitDy=0;entryX=0;entryY=0.5;entryDx=0;entryDy=0;" parent="1" source="C-vyLk0tnHw3VtMMgP7b-24" target="C-vyLk0tnHw3VtMMgP7b-14" edge="1">
          <mxGeometry relative="1" as="geometry">
            <mxPoint x="145" y="205" as="targetPoint" />
          </mxGeometry>
        </mxCell>
        <mxCell id="Tg3tCqWO-wnEFZZeCLN1-54" value="UTM Collaboration Details" style="shape=table;startSize=30;container=1;collapsible=1;childLayout=tableLayout;fixedRows=1;rowLines=0;fontStyle=1;align=center;resizeLast=1;" parent="1" vertex="1" collapsed="1">
          <mxGeometry x="405" y="240" width="190" height="30" as="geometry">
            <mxRectangle x="640" y="120" width="250" height="180" as="alternateBounds" />
          </mxGeometry>
        </mxCell>
        <mxCell id="Tg3tCqWO-wnEFZZeCLN1-55" value="" style="shape=partialRectangle;collapsible=0;dropTarget=0;pointerEvents=0;fillColor=none;points=[[0,0.5],[1,0.5]];portConstraint=eastwest;top=0;left=0;right=0;bottom=1;" parent="Tg3tCqWO-wnEFZZeCLN1-54" vertex="1">
          <mxGeometry y="30" width="250" height="30" as="geometry" />
        </mxCell>
        <mxCell id="Tg3tCqWO-wnEFZZeCLN1-56" value="PK" style="shape=partialRectangle;overflow=hidden;connectable=0;fillColor=none;top=0;left=0;bottom=0;right=0;fontStyle=1;" parent="Tg3tCqWO-wnEFZZeCLN1-55" vertex="1">
          <mxGeometry width="30" height="30" as="geometry">
            <mxRectangle width="30" height="30" as="alternateBounds" />
          </mxGeometry>
        </mxCell>
        <mxCell id="Tg3tCqWO-wnEFZZeCLN1-57" value="utmcollab_info int NOT NULL " style="shape=partialRectangle;overflow=hidden;connectable=0;fillColor=none;top=0;left=0;bottom=0;right=0;align=left;spacingLeft=6;fontStyle=5;" parent="Tg3tCqWO-wnEFZZeCLN1-55" vertex="1">
          <mxGeometry x="30" width="220" height="30" as="geometry">
            <mxRectangle width="220" height="30" as="alternateBounds" />
          </mxGeometry>
        </mxCell>
        <mxCell id="Tg3tCqWO-wnEFZZeCLN1-58" value="" style="shape=partialRectangle;collapsible=0;dropTarget=0;pointerEvents=0;fillColor=none;points=[[0,0.5],[1,0.5]];portConstraint=eastwest;top=0;left=0;right=0;bottom=0;" parent="Tg3tCqWO-wnEFZZeCLN1-54" vertex="1">
          <mxGeometry y="60" width="250" height="30" as="geometry" />
        </mxCell>
        <mxCell id="Tg3tCqWO-wnEFZZeCLN1-59" value="FK1" style="shape=partialRectangle;overflow=hidden;connectable=0;fillColor=none;top=0;left=0;bottom=0;right=0;" parent="Tg3tCqWO-wnEFZZeCLN1-58" vertex="1">
          <mxGeometry width="30" height="30" as="geometry">
            <mxRectangle width="30" height="30" as="alternateBounds" />
          </mxGeometry>
        </mxCell>
        <mxCell id="Tg3tCqWO-wnEFZZeCLN1-60" value="register_id int(20) NOT NULL" style="shape=partialRectangle;overflow=hidden;connectable=0;fillColor=none;top=0;left=0;bottom=0;right=0;align=left;spacingLeft=6;" parent="Tg3tCqWO-wnEFZZeCLN1-58" vertex="1">
          <mxGeometry x="30" width="220" height="30" as="geometry">
            <mxRectangle width="220" height="30" as="alternateBounds" />
          </mxGeometry>
        </mxCell>
        <mxCell id="Tg3tCqWO-wnEFZZeCLN1-61" value="" style="shape=partialRectangle;collapsible=0;dropTarget=0;pointerEvents=0;fillColor=none;points=[[0,0.5],[1,0.5]];portConstraint=eastwest;top=0;left=0;right=0;bottom=0;" parent="Tg3tCqWO-wnEFZZeCLN1-54" vertex="1">
          <mxGeometry y="90" width="250" height="80" as="geometry" />
        </mxCell>
        <mxCell id="Tg3tCqWO-wnEFZZeCLN1-62" value="" style="shape=partialRectangle;overflow=hidden;connectable=0;fillColor=none;top=0;left=0;bottom=0;right=0;" parent="Tg3tCqWO-wnEFZZeCLN1-61" vertex="1">
          <mxGeometry width="30" height="80" as="geometry">
            <mxRectangle width="30" height="80" as="alternateBounds" />
          </mxGeometry>
        </mxCell>
        <mxCell id="Tg3tCqWO-wnEFZZeCLN1-63" value="utm_staffname varchar(255) NOT NULL&#xa;&#xa;collab_type varchar(50) NOT NULL&#xa;&#xa;collab_desc varchar(255) NULL" style="shape=partialRectangle;overflow=hidden;connectable=0;fillColor=none;top=0;left=0;bottom=0;right=0;align=left;spacingLeft=6;" parent="Tg3tCqWO-wnEFZZeCLN1-61" vertex="1">
          <mxGeometry x="30" width="220" height="80" as="geometry">
            <mxRectangle width="220" height="80" as="alternateBounds" />
          </mxGeometry>
        </mxCell>
        <mxCell id="Tg3tCqWO-wnEFZZeCLN1-66" value="Other Collaboration Details" style="shape=table;startSize=30;container=1;collapsible=1;childLayout=tableLayout;fixedRows=1;rowLines=0;fontStyle=1;align=center;resizeLast=1;" parent="1" vertex="1" collapsed="1">
          <mxGeometry x="405" y="280" width="200" height="30" as="geometry">
            <mxRectangle x="730" y="380" width="250" height="150" as="alternateBounds" />
          </mxGeometry>
        </mxCell>
        <mxCell id="Tg3tCqWO-wnEFZZeCLN1-67" value="" style="shape=partialRectangle;collapsible=0;dropTarget=0;pointerEvents=0;fillColor=none;points=[[0,0.5],[1,0.5]];portConstraint=eastwest;top=0;left=0;right=0;bottom=1;" parent="Tg3tCqWO-wnEFZZeCLN1-66" vertex="1">
          <mxGeometry y="30" width="250" height="30" as="geometry" />
        </mxCell>
        <mxCell id="Tg3tCqWO-wnEFZZeCLN1-68" value="PK" style="shape=partialRectangle;overflow=hidden;connectable=0;fillColor=none;top=0;left=0;bottom=0;right=0;fontStyle=1;" parent="Tg3tCqWO-wnEFZZeCLN1-67" vertex="1">
          <mxGeometry width="30" height="30" as="geometry">
            <mxRectangle width="30" height="30" as="alternateBounds" />
          </mxGeometry>
        </mxCell>
        <mxCell id="Tg3tCqWO-wnEFZZeCLN1-69" value="collab_info int NOT NULL " style="shape=partialRectangle;overflow=hidden;connectable=0;fillColor=none;top=0;left=0;bottom=0;right=0;align=left;spacingLeft=6;fontStyle=5;" parent="Tg3tCqWO-wnEFZZeCLN1-67" vertex="1">
          <mxGeometry x="30" width="220" height="30" as="geometry">
            <mxRectangle width="220" height="30" as="alternateBounds" />
          </mxGeometry>
        </mxCell>
        <mxCell id="Tg3tCqWO-wnEFZZeCLN1-70" value="" style="shape=partialRectangle;collapsible=0;dropTarget=0;pointerEvents=0;fillColor=none;points=[[0,0.5],[1,0.5]];portConstraint=eastwest;top=0;left=0;right=0;bottom=0;" parent="Tg3tCqWO-wnEFZZeCLN1-66" vertex="1">
          <mxGeometry y="60" width="250" height="30" as="geometry" />
        </mxCell>
        <mxCell id="Tg3tCqWO-wnEFZZeCLN1-71" value="FK1" style="shape=partialRectangle;overflow=hidden;connectable=0;fillColor=none;top=0;left=0;bottom=0;right=0;" parent="Tg3tCqWO-wnEFZZeCLN1-70" vertex="1">
          <mxGeometry width="30" height="30" as="geometry">
            <mxRectangle width="30" height="30" as="alternateBounds" />
          </mxGeometry>
        </mxCell>
        <mxCell id="Tg3tCqWO-wnEFZZeCLN1-72" value="register_id int(20) NOT NULL" style="shape=partialRectangle;overflow=hidden;connectable=0;fillColor=none;top=0;left=0;bottom=0;right=0;align=left;spacingLeft=6;" parent="Tg3tCqWO-wnEFZZeCLN1-70" vertex="1">
          <mxGeometry x="30" width="220" height="30" as="geometry">
            <mxRectangle width="220" height="30" as="alternateBounds" />
          </mxGeometry>
        </mxCell>
        <mxCell id="Tg3tCqWO-wnEFZZeCLN1-73" value="" style="shape=partialRectangle;collapsible=0;dropTarget=0;pointerEvents=0;fillColor=none;points=[[0,0.5],[1,0.5]];portConstraint=eastwest;top=0;left=0;right=0;bottom=0;" parent="Tg3tCqWO-wnEFZZeCLN1-66" vertex="1">
          <mxGeometry y="90" width="250" height="50" as="geometry" />
        </mxCell>
        <mxCell id="Tg3tCqWO-wnEFZZeCLN1-74" value="" style="shape=partialRectangle;overflow=hidden;connectable=0;fillColor=none;top=0;left=0;bottom=0;right=0;" parent="Tg3tCqWO-wnEFZZeCLN1-73" vertex="1">
          <mxGeometry width="30" height="50" as="geometry">
            <mxRectangle width="30" height="50" as="alternateBounds" />
          </mxGeometry>
        </mxCell>
        <mxCell id="Tg3tCqWO-wnEFZZeCLN1-75" value="collab_type char(50) NOT NULL&#xa;&#xa;agency_name char(50) NOT NULL" style="shape=partialRectangle;overflow=hidden;connectable=0;fillColor=none;top=0;left=0;bottom=0;right=0;align=left;spacingLeft=6;" parent="Tg3tCqWO-wnEFZZeCLN1-73" vertex="1">
          <mxGeometry x="30" width="220" height="50" as="geometry">
            <mxRectangle width="220" height="50" as="alternateBounds" />
          </mxGeometry>
        </mxCell>
        <mxCell id="Tg3tCqWO-wnEFZZeCLN1-78" value="Supervisor" style="shape=table;startSize=30;container=1;collapsible=1;childLayout=tableLayout;fixedRows=1;rowLines=0;fontStyle=1;align=center;resizeLast=1;" parent="1" vertex="1" collapsed="1">
          <mxGeometry x="405" y="40" width="100" height="30" as="geometry">
            <mxRectangle x="640" y="520" width="250" height="320" as="alternateBounds" />
          </mxGeometry>
        </mxCell>
        <mxCell id="Tg3tCqWO-wnEFZZeCLN1-79" value="" style="shape=partialRectangle;collapsible=0;dropTarget=0;pointerEvents=0;fillColor=none;points=[[0,0.5],[1,0.5]];portConstraint=eastwest;top=0;left=0;right=0;bottom=1;" parent="Tg3tCqWO-wnEFZZeCLN1-78" vertex="1">
          <mxGeometry y="30" width="250" height="30" as="geometry" />
        </mxCell>
        <mxCell id="Tg3tCqWO-wnEFZZeCLN1-80" value="PK" style="shape=partialRectangle;overflow=hidden;connectable=0;fillColor=none;top=0;left=0;bottom=0;right=0;fontStyle=1;" parent="Tg3tCqWO-wnEFZZeCLN1-79" vertex="1">
          <mxGeometry width="30" height="30" as="geometry">
            <mxRectangle width="30" height="30" as="alternateBounds" />
          </mxGeometry>
        </mxCell>
        <mxCell id="Tg3tCqWO-wnEFZZeCLN1-81" value="sv_id int NOT NULL " style="shape=partialRectangle;overflow=hidden;connectable=0;fillColor=none;top=0;left=0;bottom=0;right=0;align=left;spacingLeft=6;fontStyle=5;" parent="Tg3tCqWO-wnEFZZeCLN1-79" vertex="1">
          <mxGeometry x="30" width="220" height="30" as="geometry">
            <mxRectangle width="220" height="30" as="alternateBounds" />
          </mxGeometry>
        </mxCell>
        <mxCell id="Tg3tCqWO-wnEFZZeCLN1-82" value="" style="shape=partialRectangle;collapsible=0;dropTarget=0;pointerEvents=0;fillColor=none;points=[[0,0.5],[1,0.5]];portConstraint=eastwest;top=0;left=0;right=0;bottom=0;" parent="Tg3tCqWO-wnEFZZeCLN1-78" vertex="1">
          <mxGeometry y="60" width="250" height="30" as="geometry" />
        </mxCell>
        <mxCell id="Tg3tCqWO-wnEFZZeCLN1-83" value="FK1" style="shape=partialRectangle;overflow=hidden;connectable=0;fillColor=none;top=0;left=0;bottom=0;right=0;" parent="Tg3tCqWO-wnEFZZeCLN1-82" vertex="1">
          <mxGeometry width="30" height="30" as="geometry">
            <mxRectangle width="30" height="30" as="alternateBounds" />
          </mxGeometry>
        </mxCell>
        <mxCell id="Tg3tCqWO-wnEFZZeCLN1-84" value="register_id int(20) NOT NULL" style="shape=partialRectangle;overflow=hidden;connectable=0;fillColor=none;top=0;left=0;bottom=0;right=0;align=left;spacingLeft=6;" parent="Tg3tCqWO-wnEFZZeCLN1-82" vertex="1">
          <mxGeometry x="30" width="220" height="30" as="geometry">
            <mxRectangle width="220" height="30" as="alternateBounds" />
          </mxGeometry>
        </mxCell>
        <mxCell id="Tg3tCqWO-wnEFZZeCLN1-85" value="" style="shape=partialRectangle;collapsible=0;dropTarget=0;pointerEvents=0;fillColor=none;points=[[0,0.5],[1,0.5]];portConstraint=eastwest;top=0;left=0;right=0;bottom=0;" parent="Tg3tCqWO-wnEFZZeCLN1-78" vertex="1">
          <mxGeometry y="90" width="250" height="220" as="geometry" />
        </mxCell>
        <mxCell id="Tg3tCqWO-wnEFZZeCLN1-86" value="" style="shape=partialRectangle;overflow=hidden;connectable=0;fillColor=none;top=0;left=0;bottom=0;right=0;" parent="Tg3tCqWO-wnEFZZeCLN1-85" vertex="1">
          <mxGeometry width="30" height="220" as="geometry">
            <mxRectangle width="30" height="220" as="alternateBounds" />
          </mxGeometry>
        </mxCell>
        <mxCell id="Tg3tCqWO-wnEFZZeCLN1-87" value="svstaffno int(6) NOT NULL&#xa;&#xa;sv_name varchar(255) NOT NULL&#xa;&#xa;sv_position varchar(255) NOT NULL&#xa;&#xa;sv_contact int(15) NOT NULL&#xa;&#xa;sv_email varchar(255) NOT NULL&#xa;&#xa;faculty varchar(255) NULL&#xa;&#xa;sv_coe varchar(255) NULL&#xa;&#xa;sv_rg varchar(255) NULL" style="shape=partialRectangle;overflow=hidden;connectable=0;fillColor=none;top=0;left=0;bottom=0;right=0;align=left;spacingLeft=6;" parent="Tg3tCqWO-wnEFZZeCLN1-85" vertex="1">
          <mxGeometry x="30" width="220" height="220" as="geometry">
            <mxRectangle width="220" height="220" as="alternateBounds" />
          </mxGeometry>
        </mxCell>
        <mxCell id="Tg3tCqWO-wnEFZZeCLN1-118" value="Education Information" style="shape=table;startSize=30;container=1;collapsible=1;childLayout=tableLayout;fixedRows=1;rowLines=0;fontStyle=1;align=center;resizeLast=1;" parent="1" vertex="1" collapsed="1">
          <mxGeometry x="405" y="320" width="170" height="30" as="geometry">
            <mxRectangle x="560" y="280" width="250" height="370" as="alternateBounds" />
          </mxGeometry>
        </mxCell>
        <mxCell id="Tg3tCqWO-wnEFZZeCLN1-119" value="" style="shape=partialRectangle;collapsible=0;dropTarget=0;pointerEvents=0;fillColor=none;points=[[0,0.5],[1,0.5]];portConstraint=eastwest;top=0;left=0;right=0;bottom=1;" parent="Tg3tCqWO-wnEFZZeCLN1-118" vertex="1">
          <mxGeometry y="30" width="250" height="30" as="geometry" />
        </mxCell>
        <mxCell id="Tg3tCqWO-wnEFZZeCLN1-120" value="PK" style="shape=partialRectangle;overflow=hidden;connectable=0;fillColor=none;top=0;left=0;bottom=0;right=0;fontStyle=1;" parent="Tg3tCqWO-wnEFZZeCLN1-119" vertex="1">
          <mxGeometry width="30" height="30" as="geometry">
            <mxRectangle width="30" height="30" as="alternateBounds" />
          </mxGeometry>
        </mxCell>
        <mxCell id="Tg3tCqWO-wnEFZZeCLN1-121" value="education_id NOT NULL " style="shape=partialRectangle;overflow=hidden;connectable=0;fillColor=none;top=0;left=0;bottom=0;right=0;align=left;spacingLeft=6;fontStyle=5;" parent="Tg3tCqWO-wnEFZZeCLN1-119" vertex="1">
          <mxGeometry x="30" width="220" height="30" as="geometry">
            <mxRectangle width="220" height="30" as="alternateBounds" />
          </mxGeometry>
        </mxCell>
        <mxCell id="Tg3tCqWO-wnEFZZeCLN1-122" value="" style="shape=partialRectangle;collapsible=0;dropTarget=0;pointerEvents=0;fillColor=none;points=[[0,0.5],[1,0.5]];portConstraint=eastwest;top=0;left=0;right=0;bottom=0;" parent="Tg3tCqWO-wnEFZZeCLN1-118" vertex="1">
          <mxGeometry y="60" width="250" height="30" as="geometry" />
        </mxCell>
        <mxCell id="Tg3tCqWO-wnEFZZeCLN1-123" value="FK1" style="shape=partialRectangle;overflow=hidden;connectable=0;fillColor=none;top=0;left=0;bottom=0;right=0;" parent="Tg3tCqWO-wnEFZZeCLN1-122" vertex="1">
          <mxGeometry width="30" height="30" as="geometry">
            <mxRectangle width="30" height="30" as="alternateBounds" />
          </mxGeometry>
        </mxCell>
        <mxCell id="Tg3tCqWO-wnEFZZeCLN1-124" value="register_id int(20) NOT NULL" style="shape=partialRectangle;overflow=hidden;connectable=0;fillColor=none;top=0;left=0;bottom=0;right=0;align=left;spacingLeft=6;" parent="Tg3tCqWO-wnEFZZeCLN1-122" vertex="1">
          <mxGeometry x="30" width="220" height="30" as="geometry">
            <mxRectangle width="220" height="30" as="alternateBounds" />
          </mxGeometry>
        </mxCell>
        <mxCell id="Tg3tCqWO-wnEFZZeCLN1-125" value="" style="shape=partialRectangle;collapsible=0;dropTarget=0;pointerEvents=0;fillColor=none;points=[[0,0.5],[1,0.5]];portConstraint=eastwest;top=0;left=0;right=0;bottom=0;" parent="Tg3tCqWO-wnEFZZeCLN1-118" vertex="1">
          <mxGeometry y="90" width="250" height="270" as="geometry" />
        </mxCell>
        <mxCell id="Tg3tCqWO-wnEFZZeCLN1-126" value="" style="shape=partialRectangle;overflow=hidden;connectable=0;fillColor=none;top=0;left=0;bottom=0;right=0;" parent="Tg3tCqWO-wnEFZZeCLN1-125" vertex="1">
          <mxGeometry width="30" height="270" as="geometry">
            <mxRectangle width="30" height="270" as="alternateBounds" />
          </mxGeometry>
        </mxCell>
        <mxCell id="Tg3tCqWO-wnEFZZeCLN1-127" value="institute_name varchar(50) NOT NULL&#xa;&#xa;edu_lvl varchar(50) NOT NULL&#xa;&#xa;specialize varchar(50) NOT NULL&#xa;&#xa;cgpa float(4) NOT NULL&#xa;&#xa;grade char(2) NOT NULL&#xa;&#xa;conferm_date date NOT NULL&#xa;&#xa;study_start date NOT NULL&#xa;&#xa;study_end date NOT NULL&#xa;&#xa;major varchar(255) NOT NULL&#xa;&#xa;minor varchar(255) NOT NULL" style="shape=partialRectangle;overflow=hidden;connectable=0;fillColor=none;top=0;left=0;bottom=0;right=0;align=left;spacingLeft=6;" parent="Tg3tCqWO-wnEFZZeCLN1-125" vertex="1">
          <mxGeometry x="30" width="220" height="270" as="geometry">
            <mxRectangle width="220" height="270" as="alternateBounds" />
          </mxGeometry>
        </mxCell>
        <mxCell id="Tg3tCqWO-wnEFZZeCLN1-129" value="Address Information" style="shape=table;startSize=30;container=1;collapsible=1;childLayout=tableLayout;fixedRows=1;rowLines=0;fontStyle=1;align=center;resizeLast=1;" parent="1" vertex="1" collapsed="1">
          <mxGeometry x="405" y="200" width="160" height="30" as="geometry">
            <mxRectangle x="1320" y="320" width="270" height="670" as="alternateBounds" />
          </mxGeometry>
        </mxCell>
        <mxCell id="Tg3tCqWO-wnEFZZeCLN1-130" value="" style="shape=partialRectangle;collapsible=0;dropTarget=0;pointerEvents=0;fillColor=none;points=[[0,0.5],[1,0.5]];portConstraint=eastwest;top=0;left=0;right=0;bottom=1;" parent="Tg3tCqWO-wnEFZZeCLN1-129" vertex="1">
          <mxGeometry y="30" width="270" height="30" as="geometry" />
        </mxCell>
        <mxCell id="Tg3tCqWO-wnEFZZeCLN1-131" value="PK" style="shape=partialRectangle;overflow=hidden;connectable=0;fillColor=none;top=0;left=0;bottom=0;right=0;fontStyle=1;" parent="Tg3tCqWO-wnEFZZeCLN1-130" vertex="1">
          <mxGeometry width="30" height="30" as="geometry">
            <mxRectangle width="30" height="30" as="alternateBounds" />
          </mxGeometry>
        </mxCell>
        <mxCell id="Tg3tCqWO-wnEFZZeCLN1-132" value="addr_info char NOT NULL " style="shape=partialRectangle;overflow=hidden;connectable=0;fillColor=none;top=0;left=0;bottom=0;right=0;align=left;spacingLeft=6;fontStyle=5;" parent="Tg3tCqWO-wnEFZZeCLN1-130" vertex="1">
          <mxGeometry x="30" width="240" height="30" as="geometry">
            <mxRectangle width="240" height="30" as="alternateBounds" />
          </mxGeometry>
        </mxCell>
        <mxCell id="Tg3tCqWO-wnEFZZeCLN1-133" value="" style="shape=partialRectangle;collapsible=0;dropTarget=0;pointerEvents=0;fillColor=none;points=[[0,0.5],[1,0.5]];portConstraint=eastwest;top=0;left=0;right=0;bottom=0;" parent="Tg3tCqWO-wnEFZZeCLN1-129" vertex="1">
          <mxGeometry y="60" width="270" height="30" as="geometry" />
        </mxCell>
        <mxCell id="Tg3tCqWO-wnEFZZeCLN1-134" value="FK1" style="shape=partialRectangle;overflow=hidden;connectable=0;fillColor=none;top=0;left=0;bottom=0;right=0;" parent="Tg3tCqWO-wnEFZZeCLN1-133" vertex="1">
          <mxGeometry width="30" height="30" as="geometry">
            <mxRectangle width="30" height="30" as="alternateBounds" />
          </mxGeometry>
        </mxCell>
        <mxCell id="Tg3tCqWO-wnEFZZeCLN1-135" value="register_id int(20) NOT NULL" style="shape=partialRectangle;overflow=hidden;connectable=0;fillColor=none;top=0;left=0;bottom=0;right=0;align=left;spacingLeft=6;" parent="Tg3tCqWO-wnEFZZeCLN1-133" vertex="1">
          <mxGeometry x="30" width="240" height="30" as="geometry">
            <mxRectangle width="240" height="30" as="alternateBounds" />
          </mxGeometry>
        </mxCell>
        <mxCell id="Tg3tCqWO-wnEFZZeCLN1-136" value="" style="shape=partialRectangle;collapsible=0;dropTarget=0;pointerEvents=0;fillColor=none;points=[[0,0.5],[1,0.5]];portConstraint=eastwest;top=0;left=0;right=0;bottom=0;" parent="Tg3tCqWO-wnEFZZeCLN1-129" vertex="1">
          <mxGeometry y="90" width="270" height="570" as="geometry" />
        </mxCell>
        <mxCell id="Tg3tCqWO-wnEFZZeCLN1-137" value="" style="shape=partialRectangle;overflow=hidden;connectable=0;fillColor=none;top=0;left=0;bottom=0;right=0;" parent="Tg3tCqWO-wnEFZZeCLN1-136" vertex="1">
          <mxGeometry width="30" height="570" as="geometry">
            <mxRectangle width="30" height="570" as="alternateBounds" />
          </mxGeometry>
        </mxCell>
        <mxCell id="Tg3tCqWO-wnEFZZeCLN1-138" value="cp_addr varchar(255) NOT NULL&#xa;&#xa;cp_addr_district varchar(20) NOT NULL&#xa;&#xa;cp_addr_state varchar(50) NOT NULL&#xa;&#xa;cp_addr_postcode int(6) NOT NULL&#xa;&#xa;cp_addr_tel int(20) NULL&#xa;&#xa;p_addr_phone int(20) NOT NULL&#xa;&#xa;p_addr varchar(255) NOT NULL&#xa;&#xa;p_addr_district varchar(20) NOT NULL&#xa;&#xa;p_addr_state varchar(50) NOT NULL&#xa;&#xa;p_addr_postcode int(6) NOT NULL&#xa;&#xa;p_addr_tel int(20) NULL&#xa;&#xa;p_addr_phone int(20) NOT NULL&#xa;&#xa;emer_name varchar(50) NOT NULL&#xa;&#xa;emer_addr varchar(255) NOT NULL&#xa;&#xa;emer_addr_district varchar(50) NOT NULL&#xa;&#xa;emer_addr_state varchar(50) NOT NULL&#xa;&#xa;emer_addr_postcode int(6) NOT NULL&#xa;&#xa;emer_addr_tel int(20) NULL&#xa;&#xa;emer_addr_phone int(20) NOT NULL&#xa;&#xa;emer_relationship varchar(50) NOT NULL" style="shape=partialRectangle;overflow=hidden;connectable=0;fillColor=none;top=0;left=0;bottom=0;right=0;align=left;spacingLeft=6;" parent="Tg3tCqWO-wnEFZZeCLN1-136" vertex="1">
          <mxGeometry x="30" width="240" height="570" as="geometry">
            <mxRectangle width="240" height="570" as="alternateBounds" />
          </mxGeometry>
        </mxCell>
        <mxCell id="Tg3tCqWO-wnEFZZeCLN1-140" value="Family Information" style="shape=table;startSize=30;container=1;collapsible=1;childLayout=tableLayout;fixedRows=1;rowLines=0;fontStyle=1;align=center;resizeLast=1;" parent="1" vertex="1" collapsed="1">
          <mxGeometry x="405" y="160" width="150" height="30" as="geometry">
            <mxRectangle x="1320" y="120" width="260" height="160" as="alternateBounds" />
          </mxGeometry>
        </mxCell>
        <mxCell id="Tg3tCqWO-wnEFZZeCLN1-141" value="" style="shape=partialRectangle;collapsible=0;dropTarget=0;pointerEvents=0;fillColor=none;points=[[0,0.5],[1,0.5]];portConstraint=eastwest;top=0;left=0;right=0;bottom=1;" parent="Tg3tCqWO-wnEFZZeCLN1-140" vertex="1">
          <mxGeometry y="30" width="260" height="30" as="geometry" />
        </mxCell>
        <mxCell id="Tg3tCqWO-wnEFZZeCLN1-142" value="PK" style="shape=partialRectangle;overflow=hidden;connectable=0;fillColor=none;top=0;left=0;bottom=0;right=0;fontStyle=1;" parent="Tg3tCqWO-wnEFZZeCLN1-141" vertex="1">
          <mxGeometry width="30" height="30" as="geometry">
            <mxRectangle width="30" height="30" as="alternateBounds" />
          </mxGeometry>
        </mxCell>
        <mxCell id="Tg3tCqWO-wnEFZZeCLN1-143" value="family_id NULL" style="shape=partialRectangle;overflow=hidden;connectable=0;fillColor=none;top=0;left=0;bottom=0;right=0;align=left;spacingLeft=6;fontStyle=5;" parent="Tg3tCqWO-wnEFZZeCLN1-141" vertex="1">
          <mxGeometry x="30" width="230" height="30" as="geometry">
            <mxRectangle width="230" height="30" as="alternateBounds" />
          </mxGeometry>
        </mxCell>
        <mxCell id="Tg3tCqWO-wnEFZZeCLN1-144" value="" style="shape=partialRectangle;collapsible=0;dropTarget=0;pointerEvents=0;fillColor=none;points=[[0,0.5],[1,0.5]];portConstraint=eastwest;top=0;left=0;right=0;bottom=0;" parent="Tg3tCqWO-wnEFZZeCLN1-140" vertex="1">
          <mxGeometry y="60" width="260" height="30" as="geometry" />
        </mxCell>
        <mxCell id="Tg3tCqWO-wnEFZZeCLN1-145" value="FK1" style="shape=partialRectangle;overflow=hidden;connectable=0;fillColor=none;top=0;left=0;bottom=0;right=0;" parent="Tg3tCqWO-wnEFZZeCLN1-144" vertex="1">
          <mxGeometry width="30" height="30" as="geometry">
            <mxRectangle width="30" height="30" as="alternateBounds" />
          </mxGeometry>
        </mxCell>
        <mxCell id="Tg3tCqWO-wnEFZZeCLN1-146" value="register_id int(20) NOT NULL" style="shape=partialRectangle;overflow=hidden;connectable=0;fillColor=none;top=0;left=0;bottom=0;right=0;align=left;spacingLeft=6;" parent="Tg3tCqWO-wnEFZZeCLN1-144" vertex="1">
          <mxGeometry x="30" width="230" height="30" as="geometry">
            <mxRectangle width="230" height="30" as="alternateBounds" />
          </mxGeometry>
        </mxCell>
        <mxCell id="Tg3tCqWO-wnEFZZeCLN1-147" value="" style="shape=partialRectangle;collapsible=0;dropTarget=0;pointerEvents=0;fillColor=none;points=[[0,0.5],[1,0.5]];portConstraint=eastwest;top=0;left=0;right=0;bottom=0;" parent="Tg3tCqWO-wnEFZZeCLN1-140" vertex="1">
          <mxGeometry y="90" width="260" height="60" as="geometry" />
        </mxCell>
        <mxCell id="Tg3tCqWO-wnEFZZeCLN1-148" value="" style="shape=partialRectangle;overflow=hidden;connectable=0;fillColor=none;top=0;left=0;bottom=0;right=0;" parent="Tg3tCqWO-wnEFZZeCLN1-147" vertex="1">
          <mxGeometry width="30" height="60" as="geometry">
            <mxRectangle width="30" height="60" as="alternateBounds" />
          </mxGeometry>
        </mxCell>
        <mxCell id="Tg3tCqWO-wnEFZZeCLN1-149" value="staffno int(6) NOT NULL&#xa;&#xa;fullname varchar(255) NOT NULL" style="shape=partialRectangle;overflow=hidden;connectable=0;fillColor=none;top=0;left=0;bottom=0;right=0;align=left;spacingLeft=6;" parent="Tg3tCqWO-wnEFZZeCLN1-147" vertex="1">
          <mxGeometry x="30" width="230" height="60" as="geometry">
            <mxRectangle width="230" height="60" as="alternateBounds" />
          </mxGeometry>
        </mxCell>
        <mxCell id="7m5NMQ4qwO3rlpRu4f6F-7" value="Bank Information" style="shape=table;startSize=30;container=1;collapsible=1;childLayout=tableLayout;fixedRows=1;rowLines=0;fontStyle=1;align=center;resizeLast=1;" parent="1" vertex="1" collapsed="1">
          <mxGeometry x="405" y="120" width="140" height="30" as="geometry">
            <mxRectangle x="1000" y="520" width="270" height="410" as="alternateBounds" />
          </mxGeometry>
        </mxCell>
        <mxCell id="7m5NMQ4qwO3rlpRu4f6F-8" value="" style="shape=partialRectangle;collapsible=0;dropTarget=0;pointerEvents=0;fillColor=none;points=[[0,0.5],[1,0.5]];portConstraint=eastwest;top=0;left=0;right=0;bottom=1;" parent="7m5NMQ4qwO3rlpRu4f6F-7" vertex="1">
          <mxGeometry y="30" width="270" height="30" as="geometry" />
        </mxCell>
        <mxCell id="7m5NMQ4qwO3rlpRu4f6F-9" value="PK" style="shape=partialRectangle;overflow=hidden;connectable=0;fillColor=none;top=0;left=0;bottom=0;right=0;fontStyle=1;" parent="7m5NMQ4qwO3rlpRu4f6F-8" vertex="1">
          <mxGeometry width="30" height="30" as="geometry">
            <mxRectangle width="30" height="30" as="alternateBounds" />
          </mxGeometry>
        </mxCell>
        <mxCell id="7m5NMQ4qwO3rlpRu4f6F-10" value="bank_id NOT NULL " style="shape=partialRectangle;overflow=hidden;connectable=0;fillColor=none;top=0;left=0;bottom=0;right=0;align=left;spacingLeft=6;fontStyle=5;" parent="7m5NMQ4qwO3rlpRu4f6F-8" vertex="1">
          <mxGeometry x="30" width="240" height="30" as="geometry">
            <mxRectangle width="240" height="30" as="alternateBounds" />
          </mxGeometry>
        </mxCell>
        <mxCell id="7m5NMQ4qwO3rlpRu4f6F-11" value="" style="shape=partialRectangle;collapsible=0;dropTarget=0;pointerEvents=0;fillColor=none;points=[[0,0.5],[1,0.5]];portConstraint=eastwest;top=0;left=0;right=0;bottom=0;" parent="7m5NMQ4qwO3rlpRu4f6F-7" vertex="1">
          <mxGeometry y="60" width="270" height="30" as="geometry" />
        </mxCell>
        <mxCell id="7m5NMQ4qwO3rlpRu4f6F-12" value="FK1" style="shape=partialRectangle;overflow=hidden;connectable=0;fillColor=none;top=0;left=0;bottom=0;right=0;" parent="7m5NMQ4qwO3rlpRu4f6F-11" vertex="1">
          <mxGeometry width="30" height="30" as="geometry">
            <mxRectangle width="30" height="30" as="alternateBounds" />
          </mxGeometry>
        </mxCell>
        <mxCell id="7m5NMQ4qwO3rlpRu4f6F-13" value="register_id int(20) NOT NULL" style="shape=partialRectangle;overflow=hidden;connectable=0;fillColor=none;top=0;left=0;bottom=0;right=0;align=left;spacingLeft=6;" parent="7m5NMQ4qwO3rlpRu4f6F-11" vertex="1">
          <mxGeometry x="30" width="240" height="30" as="geometry">
            <mxRectangle width="240" height="30" as="alternateBounds" />
          </mxGeometry>
        </mxCell>
        <mxCell id="7m5NMQ4qwO3rlpRu4f6F-14" value="" style="shape=partialRectangle;collapsible=0;dropTarget=0;pointerEvents=0;fillColor=none;points=[[0,0.5],[1,0.5]];portConstraint=eastwest;top=0;left=0;right=0;bottom=0;" parent="7m5NMQ4qwO3rlpRu4f6F-7" vertex="1">
          <mxGeometry y="90" width="270" height="310" as="geometry" />
        </mxCell>
        <mxCell id="7m5NMQ4qwO3rlpRu4f6F-15" value="" style="shape=partialRectangle;overflow=hidden;connectable=0;fillColor=none;top=0;left=0;bottom=0;right=0;" parent="7m5NMQ4qwO3rlpRu4f6F-14" vertex="1">
          <mxGeometry width="30" height="310" as="geometry">
            <mxRectangle width="30" height="310" as="alternateBounds" />
          </mxGeometry>
        </mxCell>
        <mxCell id="7m5NMQ4qwO3rlpRu4f6F-16" value="tax_number int(12) NOT NULL&#xa;&#xa;bank_name char(50) NOT NULL&#xa;&#xa;swift_code char(50) NOT NULL&#xa;&#xa;bank_addr char(255) NOT NULL&#xa;&#xa;branch_code(10) NULL&#xa;&#xa;branch_location(255) NULL&#xa;&#xa;account_no int(30) NOT NULL&#xa;&#xa;iban varchar(50) NOT NULL&#xa;&#xa;acc_holder_name varchar(30) NOT NULL&#xa;&#xa;address varchar(255) NOT NULL&#xa;&#xa;phone_no int(20) NOT NULL" style="shape=partialRectangle;overflow=hidden;connectable=0;fillColor=none;top=0;left=0;bottom=0;right=0;align=left;spacingLeft=6;" parent="7m5NMQ4qwO3rlpRu4f6F-14" vertex="1">
          <mxGeometry x="30" width="240" height="310" as="geometry">
            <mxRectangle width="240" height="310" as="alternateBounds" />
          </mxGeometry>
        </mxCell>
        <mxCell id="7m5NMQ4qwO3rlpRu4f6F-18" value="Family Information (Spouse)" style="shape=table;startSize=30;container=1;collapsible=1;childLayout=tableLayout;fixedRows=1;rowLines=0;fontStyle=1;align=center;resizeLast=1;" parent="1" vertex="1" collapsed="1">
          <mxGeometry x="645" y="120" width="200" height="30" as="geometry">
            <mxRectangle x="1660" y="70" width="270" height="830" as="alternateBounds" />
          </mxGeometry>
        </mxCell>
        <mxCell id="7m5NMQ4qwO3rlpRu4f6F-19" value="" style="shape=partialRectangle;collapsible=0;dropTarget=0;pointerEvents=0;fillColor=none;points=[[0,0.5],[1,0.5]];portConstraint=eastwest;top=0;left=0;right=0;bottom=1;" parent="7m5NMQ4qwO3rlpRu4f6F-18" vertex="1">
          <mxGeometry y="30" width="270" height="30" as="geometry" />
        </mxCell>
        <mxCell id="7m5NMQ4qwO3rlpRu4f6F-20" value="PK" style="shape=partialRectangle;overflow=hidden;connectable=0;fillColor=none;top=0;left=0;bottom=0;right=0;fontStyle=1;" parent="7m5NMQ4qwO3rlpRu4f6F-19" vertex="1">
          <mxGeometry width="30" height="30" as="geometry">
            <mxRectangle width="30" height="30" as="alternateBounds" />
          </mxGeometry>
        </mxCell>
        <mxCell id="7m5NMQ4qwO3rlpRu4f6F-21" value="spouse_id NOT NULL " style="shape=partialRectangle;overflow=hidden;connectable=0;fillColor=none;top=0;left=0;bottom=0;right=0;align=left;spacingLeft=6;fontStyle=5;" parent="7m5NMQ4qwO3rlpRu4f6F-19" vertex="1">
          <mxGeometry x="30" width="240" height="30" as="geometry">
            <mxRectangle width="240" height="30" as="alternateBounds" />
          </mxGeometry>
        </mxCell>
        <mxCell id="7m5NMQ4qwO3rlpRu4f6F-22" value="" style="shape=partialRectangle;collapsible=0;dropTarget=0;pointerEvents=0;fillColor=none;points=[[0,0.5],[1,0.5]];portConstraint=eastwest;top=0;left=0;right=0;bottom=0;" parent="7m5NMQ4qwO3rlpRu4f6F-18" vertex="1">
          <mxGeometry y="60" width="270" height="30" as="geometry" />
        </mxCell>
        <mxCell id="7m5NMQ4qwO3rlpRu4f6F-23" value="FK1" style="shape=partialRectangle;overflow=hidden;connectable=0;fillColor=none;top=0;left=0;bottom=0;right=0;" parent="7m5NMQ4qwO3rlpRu4f6F-22" vertex="1">
          <mxGeometry width="30" height="30" as="geometry">
            <mxRectangle width="30" height="30" as="alternateBounds" />
          </mxGeometry>
        </mxCell>
        <mxCell id="7m5NMQ4qwO3rlpRu4f6F-24" value="family_id int(20) NOT NULL" style="shape=partialRectangle;overflow=hidden;connectable=0;fillColor=none;top=0;left=0;bottom=0;right=0;align=left;spacingLeft=6;" parent="7m5NMQ4qwO3rlpRu4f6F-22" vertex="1">
          <mxGeometry x="30" width="240" height="30" as="geometry">
            <mxRectangle width="240" height="30" as="alternateBounds" />
          </mxGeometry>
        </mxCell>
        <mxCell id="7m5NMQ4qwO3rlpRu4f6F-25" value="" style="shape=partialRectangle;collapsible=0;dropTarget=0;pointerEvents=0;fillColor=none;points=[[0,0.5],[1,0.5]];portConstraint=eastwest;top=0;left=0;right=0;bottom=0;" parent="7m5NMQ4qwO3rlpRu4f6F-18" vertex="1">
          <mxGeometry y="90" width="270" height="730" as="geometry" />
        </mxCell>
        <mxCell id="7m5NMQ4qwO3rlpRu4f6F-26" value="" style="shape=partialRectangle;overflow=hidden;connectable=0;fillColor=none;top=0;left=0;bottom=0;right=0;" parent="7m5NMQ4qwO3rlpRu4f6F-25" vertex="1">
          <mxGeometry width="30" height="730" as="geometry">
            <mxRectangle width="30" height="730" as="alternateBounds" />
          </mxGeometry>
        </mxCell>
        <mxCell id="7m5NMQ4qwO3rlpRu4f6F-27" value="spouse_name varchar(50) NOT NULL&#xa;&#xa;spouse_ic varchar(2) NOT NULL&#xa;&#xa;marital_status varchar(50) NOT NULL&#xa;&#xa;marriage_certno int(10) NOT NULL&#xa;&#xa;marriage_date date NOT NULL&#xa;&#xa;spouse_race varchar(50) NOT NULL&#xa;&#xa;spouse_nationality varchar(50) NOT NULL&#xa;&#xa;spouse_religion varchar(50) NOT NULL&#xa;&#xa;spouse_gender varchar(50) NOT NULL&#xa;&#xa;spouse_birth_date date NOT NULL&#xa;&#xa;spouse_birth_place varchar(255) NOT NULL&#xa;&#xa;spouse_disability bit(2) NOT NULL&#xa;&#xa;spouse_disability_desc varchar(255) NULL&#xa;&#xa;spouse_contact int(20) NOT NULL&#xa;&#xa;spouse_employer_stat varchar(255) NULL&#xa;&#xa;spouse_occupation varchar(50) NULL&#xa;&#xa;spouse_employer_name varchar(50) NULL&#xa;&#xa;spouse_emp_addr varchar(255) NULL&#xa;&#xa;spouse_emp_postcode int(6) NULL&#xa;&#xa;spouse_emp_state varchar(20) NULL&#xa;&#xa;spouse_emp_region varchar(20) NULL&#xa;&#xa;spouse_emp_city varchar(20) NULL&#xa;&#xa;spouse_emp_fix_no int(20) NULL&#xa;&#xa;spouse_emp_phone int(20) NULL&#xa;&#xa;spouse_startdate date NULL&#xa;&#xa;spouse_incometaxno varchar(20) NULL" style="shape=partialRectangle;overflow=hidden;connectable=0;fillColor=none;top=0;left=0;bottom=0;right=0;align=left;spacingLeft=6;" parent="7m5NMQ4qwO3rlpRu4f6F-25" vertex="1">
          <mxGeometry x="30" width="240" height="730" as="geometry">
            <mxRectangle width="240" height="730" as="alternateBounds" />
          </mxGeometry>
        </mxCell>
        <mxCell id="7m5NMQ4qwO3rlpRu4f6F-42" value="Family Information (Child)" style="shape=table;startSize=30;container=1;collapsible=1;childLayout=tableLayout;fixedRows=1;rowLines=0;fontStyle=1;align=center;resizeLast=1;" parent="1" vertex="1" collapsed="1">
          <mxGeometry x="645" y="160" width="190" height="30" as="geometry">
            <mxRectangle x="1660" y="920" width="270" height="460" as="alternateBounds" />
          </mxGeometry>
        </mxCell>
        <mxCell id="7m5NMQ4qwO3rlpRu4f6F-43" value="" style="shape=partialRectangle;collapsible=0;dropTarget=0;pointerEvents=0;fillColor=none;points=[[0,0.5],[1,0.5]];portConstraint=eastwest;top=0;left=0;right=0;bottom=1;" parent="7m5NMQ4qwO3rlpRu4f6F-42" vertex="1">
          <mxGeometry y="30" width="270" height="30" as="geometry" />
        </mxCell>
        <mxCell id="7m5NMQ4qwO3rlpRu4f6F-44" value="PK" style="shape=partialRectangle;overflow=hidden;connectable=0;fillColor=none;top=0;left=0;bottom=0;right=0;fontStyle=1;" parent="7m5NMQ4qwO3rlpRu4f6F-43" vertex="1">
          <mxGeometry width="30" height="30" as="geometry">
            <mxRectangle width="30" height="30" as="alternateBounds" />
          </mxGeometry>
        </mxCell>
        <mxCell id="7m5NMQ4qwO3rlpRu4f6F-45" value="child_id NOT NULL " style="shape=partialRectangle;overflow=hidden;connectable=0;fillColor=none;top=0;left=0;bottom=0;right=0;align=left;spacingLeft=6;fontStyle=5;" parent="7m5NMQ4qwO3rlpRu4f6F-43" vertex="1">
          <mxGeometry x="30" width="240" height="30" as="geometry">
            <mxRectangle width="240" height="30" as="alternateBounds" />
          </mxGeometry>
        </mxCell>
        <mxCell id="7m5NMQ4qwO3rlpRu4f6F-46" value="" style="shape=partialRectangle;collapsible=0;dropTarget=0;pointerEvents=0;fillColor=none;points=[[0,0.5],[1,0.5]];portConstraint=eastwest;top=0;left=0;right=0;bottom=0;" parent="7m5NMQ4qwO3rlpRu4f6F-42" vertex="1">
          <mxGeometry y="60" width="270" height="30" as="geometry" />
        </mxCell>
        <mxCell id="7m5NMQ4qwO3rlpRu4f6F-47" value="FK1" style="shape=partialRectangle;overflow=hidden;connectable=0;fillColor=none;top=0;left=0;bottom=0;right=0;" parent="7m5NMQ4qwO3rlpRu4f6F-46" vertex="1">
          <mxGeometry width="30" height="30" as="geometry">
            <mxRectangle width="30" height="30" as="alternateBounds" />
          </mxGeometry>
        </mxCell>
        <mxCell id="7m5NMQ4qwO3rlpRu4f6F-48" value="family_id int(20) NOT NULL" style="shape=partialRectangle;overflow=hidden;connectable=0;fillColor=none;top=0;left=0;bottom=0;right=0;align=left;spacingLeft=6;" parent="7m5NMQ4qwO3rlpRu4f6F-46" vertex="1">
          <mxGeometry x="30" width="240" height="30" as="geometry">
            <mxRectangle width="240" height="30" as="alternateBounds" />
          </mxGeometry>
        </mxCell>
        <mxCell id="7m5NMQ4qwO3rlpRu4f6F-49" value="" style="shape=partialRectangle;collapsible=0;dropTarget=0;pointerEvents=0;fillColor=none;points=[[0,0.5],[1,0.5]];portConstraint=eastwest;top=0;left=0;right=0;bottom=0;" parent="7m5NMQ4qwO3rlpRu4f6F-42" vertex="1">
          <mxGeometry y="90" width="270" height="360" as="geometry" />
        </mxCell>
        <mxCell id="7m5NMQ4qwO3rlpRu4f6F-50" value="" style="shape=partialRectangle;overflow=hidden;connectable=0;fillColor=none;top=0;left=0;bottom=0;right=0;" parent="7m5NMQ4qwO3rlpRu4f6F-49" vertex="1">
          <mxGeometry width="30" height="360" as="geometry">
            <mxRectangle width="30" height="360" as="alternateBounds" />
          </mxGeometry>
        </mxCell>
        <mxCell id="7m5NMQ4qwO3rlpRu4f6F-51" value="child_name char(50) NOT NULL&#xa;&#xa;child_birthcertno char(20) NOT NULL&#xa;&#xa;child_id_no char(50) NOT NULL&#xa;&#xa;child_marriage_status char(10) NOT NULL&#xa;&#xa;child_race char(50) NOT NULL&#xa;&#xa;child_nationality char(50) NOT NULL&#xa;&#xa;child_religion char(50) NOT NULL&#xa;&#xa;child_gender char(50) NOT NULL&#xa;&#xa;child_birth_date date NOT NULL&#xa;&#xa;child_birth_place char(250) NOT NULL&#xa;&#xa;child_disability bool(4) NOT NULL&#xa;&#xa;child_disability_desc char(255) NULL&#xa;&#xa;child_school_status char(5) NOT NULL" style="shape=partialRectangle;overflow=hidden;connectable=0;fillColor=none;top=0;left=0;bottom=0;right=0;align=left;spacingLeft=6;" parent="7m5NMQ4qwO3rlpRu4f6F-49" vertex="1">
          <mxGeometry x="30" width="240" height="360" as="geometry">
            <mxRectangle width="240" height="360" as="alternateBounds" />
          </mxGeometry>
        </mxCell>
        <mxCell id="7m5NMQ4qwO3rlpRu4f6F-67" value="Scheme Info" style="shape=table;startSize=30;container=1;collapsible=1;childLayout=tableLayout;fixedRows=1;rowLines=0;fontStyle=1;align=center;resizeLast=1;" parent="1" vertex="1" collapsed="1">
          <mxGeometry x="5" y="120" width="110" height="30" as="geometry">
            <mxRectangle x="40" y="320" width="250" height="160" as="alternateBounds" />
          </mxGeometry>
        </mxCell>
        <mxCell id="7m5NMQ4qwO3rlpRu4f6F-68" value="" style="shape=partialRectangle;collapsible=0;dropTarget=0;pointerEvents=0;fillColor=none;points=[[0,0.5],[1,0.5]];portConstraint=eastwest;top=0;left=0;right=0;bottom=1;" parent="7m5NMQ4qwO3rlpRu4f6F-67" vertex="1">
          <mxGeometry y="30" width="250" height="30" as="geometry" />
        </mxCell>
        <mxCell id="7m5NMQ4qwO3rlpRu4f6F-69" value="PK" style="shape=partialRectangle;overflow=hidden;connectable=0;fillColor=none;top=0;left=0;bottom=0;right=0;fontStyle=1;" parent="7m5NMQ4qwO3rlpRu4f6F-68" vertex="1">
          <mxGeometry width="30" height="30" as="geometry">
            <mxRectangle width="30" height="30" as="alternateBounds" />
          </mxGeometry>
        </mxCell>
        <mxCell id="7m5NMQ4qwO3rlpRu4f6F-70" value="scheme_id NOT NULL" style="shape=partialRectangle;overflow=hidden;connectable=0;fillColor=none;top=0;left=0;bottom=0;right=0;align=left;spacingLeft=6;fontStyle=5;" parent="7m5NMQ4qwO3rlpRu4f6F-68" vertex="1">
          <mxGeometry x="30" width="220" height="30" as="geometry">
            <mxRectangle width="220" height="30" as="alternateBounds" />
          </mxGeometry>
        </mxCell>
        <mxCell id="7m5NMQ4qwO3rlpRu4f6F-71" value="" style="shape=partialRectangle;collapsible=0;dropTarget=0;pointerEvents=0;fillColor=none;points=[[0,0.5],[1,0.5]];portConstraint=eastwest;top=0;left=0;right=0;bottom=0;" parent="7m5NMQ4qwO3rlpRu4f6F-67" vertex="1">
          <mxGeometry y="60" width="250" height="30" as="geometry" />
        </mxCell>
        <mxCell id="7m5NMQ4qwO3rlpRu4f6F-72" value="FK1" style="shape=partialRectangle;overflow=hidden;connectable=0;fillColor=none;top=0;left=0;bottom=0;right=0;" parent="7m5NMQ4qwO3rlpRu4f6F-71" vertex="1">
          <mxGeometry width="30" height="30" as="geometry">
            <mxRectangle width="30" height="30" as="alternateBounds" />
          </mxGeometry>
        </mxCell>
        <mxCell id="7m5NMQ4qwO3rlpRu4f6F-73" value="scheme_name char(50) NOT NULL" style="shape=partialRectangle;overflow=hidden;connectable=0;fillColor=none;top=0;left=0;bottom=0;right=0;align=left;spacingLeft=6;" parent="7m5NMQ4qwO3rlpRu4f6F-71" vertex="1">
          <mxGeometry x="30" width="220" height="30" as="geometry">
            <mxRectangle width="220" height="30" as="alternateBounds" />
          </mxGeometry>
        </mxCell>
        <mxCell id="7m5NMQ4qwO3rlpRu4f6F-74" value="" style="shape=partialRectangle;collapsible=0;dropTarget=0;pointerEvents=0;fillColor=none;points=[[0,0.5],[1,0.5]];portConstraint=eastwest;top=0;left=0;right=0;bottom=0;" parent="7m5NMQ4qwO3rlpRu4f6F-67" vertex="1">
          <mxGeometry y="90" width="250" height="60" as="geometry" />
        </mxCell>
        <mxCell id="7m5NMQ4qwO3rlpRu4f6F-75" value="" style="shape=partialRectangle;overflow=hidden;connectable=0;fillColor=none;top=0;left=0;bottom=0;right=0;" parent="7m5NMQ4qwO3rlpRu4f6F-74" vertex="1">
          <mxGeometry width="30" height="60" as="geometry">
            <mxRectangle width="30" height="60" as="alternateBounds" />
          </mxGeometry>
        </mxCell>
        <mxCell id="7m5NMQ4qwO3rlpRu4f6F-76" value="scheme_type char(20) NOT NULL&#xa;&#xa;scheme_duration char(50) NOT NULL" style="shape=partialRectangle;overflow=hidden;connectable=0;fillColor=none;top=0;left=0;bottom=0;right=0;align=left;spacingLeft=6;" parent="7m5NMQ4qwO3rlpRu4f6F-74" vertex="1">
          <mxGeometry x="30" width="220" height="60" as="geometry">
            <mxRectangle width="220" height="60" as="alternateBounds" />
          </mxGeometry>
        </mxCell>
        <mxCell id="7m5NMQ4qwO3rlpRu4f6F-77" value="Publication Details" style="shape=table;startSize=30;container=1;collapsible=1;childLayout=tableLayout;fixedRows=1;rowLines=0;fontStyle=1;align=center;resizeLast=1;" parent="1" vertex="1" collapsed="1">
          <mxGeometry x="405" y="80" width="150" height="30" as="geometry">
            <mxRectangle x="320" y="840" width="250" height="300" as="alternateBounds" />
          </mxGeometry>
        </mxCell>
        <mxCell id="7m5NMQ4qwO3rlpRu4f6F-78" value="" style="shape=partialRectangle;collapsible=0;dropTarget=0;pointerEvents=0;fillColor=none;points=[[0,0.5],[1,0.5]];portConstraint=eastwest;top=0;left=0;right=0;bottom=1;" parent="7m5NMQ4qwO3rlpRu4f6F-77" vertex="1">
          <mxGeometry y="30" width="250" height="30" as="geometry" />
        </mxCell>
        <mxCell id="7m5NMQ4qwO3rlpRu4f6F-79" value="PK" style="shape=partialRectangle;overflow=hidden;connectable=0;fillColor=none;top=0;left=0;bottom=0;right=0;fontStyle=1;" parent="7m5NMQ4qwO3rlpRu4f6F-78" vertex="1">
          <mxGeometry width="30" height="30" as="geometry">
            <mxRectangle width="30" height="30" as="alternateBounds" />
          </mxGeometry>
        </mxCell>
        <mxCell id="7m5NMQ4qwO3rlpRu4f6F-80" value="publication_id int NOT NULL " style="shape=partialRectangle;overflow=hidden;connectable=0;fillColor=none;top=0;left=0;bottom=0;right=0;align=left;spacingLeft=6;fontStyle=5;" parent="7m5NMQ4qwO3rlpRu4f6F-78" vertex="1">
          <mxGeometry x="30" width="220" height="30" as="geometry">
            <mxRectangle width="220" height="30" as="alternateBounds" />
          </mxGeometry>
        </mxCell>
        <mxCell id="7m5NMQ4qwO3rlpRu4f6F-81" value="" style="shape=partialRectangle;collapsible=0;dropTarget=0;pointerEvents=0;fillColor=none;points=[[0,0.5],[1,0.5]];portConstraint=eastwest;top=0;left=0;right=0;bottom=0;" parent="7m5NMQ4qwO3rlpRu4f6F-77" vertex="1">
          <mxGeometry y="60" width="250" height="30" as="geometry" />
        </mxCell>
        <mxCell id="7m5NMQ4qwO3rlpRu4f6F-82" value="FK1" style="shape=partialRectangle;overflow=hidden;connectable=0;fillColor=none;top=0;left=0;bottom=0;right=0;" parent="7m5NMQ4qwO3rlpRu4f6F-81" vertex="1">
          <mxGeometry width="30" height="30" as="geometry">
            <mxRectangle width="30" height="30" as="alternateBounds" />
          </mxGeometry>
        </mxCell>
        <mxCell id="7m5NMQ4qwO3rlpRu4f6F-83" value="register_id(20) NOT NULL" style="shape=partialRectangle;overflow=hidden;connectable=0;fillColor=none;top=0;left=0;bottom=0;right=0;align=left;spacingLeft=6;" parent="7m5NMQ4qwO3rlpRu4f6F-81" vertex="1">
          <mxGeometry x="30" width="220" height="30" as="geometry">
            <mxRectangle width="220" height="30" as="alternateBounds" />
          </mxGeometry>
        </mxCell>
        <mxCell id="7m5NMQ4qwO3rlpRu4f6F-84" value="" style="shape=partialRectangle;collapsible=0;dropTarget=0;pointerEvents=0;fillColor=none;points=[[0,0.5],[1,0.5]];portConstraint=eastwest;top=0;left=0;right=0;bottom=0;" parent="7m5NMQ4qwO3rlpRu4f6F-77" vertex="1">
          <mxGeometry y="90" width="250" height="200" as="geometry" />
        </mxCell>
        <mxCell id="7m5NMQ4qwO3rlpRu4f6F-85" value="" style="shape=partialRectangle;overflow=hidden;connectable=0;fillColor=none;top=0;left=0;bottom=0;right=0;" parent="7m5NMQ4qwO3rlpRu4f6F-84" vertex="1">
          <mxGeometry width="30" height="200" as="geometry">
            <mxRectangle width="30" height="200" as="alternateBounds" />
          </mxGeometry>
        </mxCell>
        <mxCell id="7m5NMQ4qwO3rlpRu4f6F-86" value="pub_id_isi char(50) NOT NULL&#xa;&#xa;pub_id_sco char(50) NOT NULL&#xa;&#xa;total_pub int(4) NOT NULL&#xa;&#xa;q12paper_pub int(3) NOT NULL&#xa;&#xa;q12paper_au_pub int(3) NOT NULL&#xa;&#xa;hindex_isi int(3) NOT NULL&#xa;&#xa;hindex_sco int(3) NOT NULL&#xa;" style="shape=partialRectangle;overflow=hidden;connectable=0;fillColor=none;top=0;left=0;bottom=0;right=0;align=left;spacingLeft=6;" parent="7m5NMQ4qwO3rlpRu4f6F-84" vertex="1">
          <mxGeometry x="30" width="220" height="200" as="geometry">
            <mxRectangle width="220" height="200" as="alternateBounds" />
          </mxGeometry>
        </mxCell>
        <mxCell id="CSfrUNltyaViqE1sJyTJ-6" value="" style="edgeStyle=entityRelationEdgeStyle;fontSize=12;html=1;endArrow=ERoneToMany;rounded=0;entryX=0;entryY=0.5;entryDx=0;entryDy=0;" edge="1" parent="1" source="7m5NMQ4qwO3rlpRu4f6F-77" target="ghmF97qPjCxjDa39pvIn-4">
          <mxGeometry width="100" height="100" relative="1" as="geometry">
            <mxPoint x="295" y="115" as="sourcePoint" />
            <mxPoint x="545" y="125" as="targetPoint" />
          </mxGeometry>
        </mxCell>
        <mxCell id="ghmF97qPjCxjDa39pvIn-4" value="Paper Details" style="shape=table;startSize=30;container=1;collapsible=1;childLayout=tableLayout;fixedRows=1;rowLines=0;fontStyle=1;align=center;resizeLast=1;" parent="1" vertex="1" collapsed="1">
          <mxGeometry x="645" y="80" width="120" height="30" as="geometry">
            <mxRectangle x="30" y="840" width="270" height="240" as="alternateBounds" />
          </mxGeometry>
        </mxCell>
        <mxCell id="ghmF97qPjCxjDa39pvIn-5" value="" style="shape=tableRow;horizontal=0;startSize=0;swimlaneHead=0;swimlaneBody=0;fillColor=none;collapsible=0;dropTarget=0;points=[[0,0.5],[1,0.5]];portConstraint=eastwest;top=0;left=0;right=0;bottom=1;" parent="ghmF97qPjCxjDa39pvIn-4" vertex="1">
          <mxGeometry y="30" width="270" height="30" as="geometry" />
        </mxCell>
        <mxCell id="ghmF97qPjCxjDa39pvIn-6" value="PK" style="shape=partialRectangle;connectable=0;fillColor=none;top=0;left=0;bottom=0;right=0;fontStyle=1;overflow=hidden;" parent="ghmF97qPjCxjDa39pvIn-5" vertex="1">
          <mxGeometry width="30" height="30" as="geometry">
            <mxRectangle width="30" height="30" as="alternateBounds" />
          </mxGeometry>
        </mxCell>
        <mxCell id="ghmF97qPjCxjDa39pvIn-7" value="paper_title varchar(255) NOT NULL" style="shape=partialRectangle;connectable=0;fillColor=none;top=0;left=0;bottom=0;right=0;align=left;spacingLeft=6;fontStyle=5;overflow=hidden;" parent="ghmF97qPjCxjDa39pvIn-5" vertex="1">
          <mxGeometry x="30" width="240" height="30" as="geometry">
            <mxRectangle width="240" height="30" as="alternateBounds" />
          </mxGeometry>
        </mxCell>
        <mxCell id="ghmF97qPjCxjDa39pvIn-8" value="" style="shape=tableRow;horizontal=0;startSize=0;swimlaneHead=0;swimlaneBody=0;fillColor=none;collapsible=0;dropTarget=0;points=[[0,0.5],[1,0.5]];portConstraint=eastwest;top=0;left=0;right=0;bottom=0;" parent="ghmF97qPjCxjDa39pvIn-4" vertex="1">
          <mxGeometry y="60" width="270" height="30" as="geometry" />
        </mxCell>
        <mxCell id="ghmF97qPjCxjDa39pvIn-9" value="FK1" style="shape=partialRectangle;connectable=0;fillColor=none;top=0;left=0;bottom=0;right=0;editable=1;overflow=hidden;" parent="ghmF97qPjCxjDa39pvIn-8" vertex="1">
          <mxGeometry width="30" height="30" as="geometry">
            <mxRectangle width="30" height="30" as="alternateBounds" />
          </mxGeometry>
        </mxCell>
        <mxCell id="ghmF97qPjCxjDa39pvIn-10" value="publication_id (20) NOT NULL" style="shape=partialRectangle;connectable=0;fillColor=none;top=0;left=0;bottom=0;right=0;align=left;spacingLeft=6;overflow=hidden;fontStyle=0" parent="ghmF97qPjCxjDa39pvIn-8" vertex="1">
          <mxGeometry x="30" width="240" height="30" as="geometry">
            <mxRectangle width="240" height="30" as="alternateBounds" />
          </mxGeometry>
        </mxCell>
        <mxCell id="ghmF97qPjCxjDa39pvIn-11" value="" style="shape=tableRow;horizontal=0;startSize=0;swimlaneHead=0;swimlaneBody=0;fillColor=none;collapsible=0;dropTarget=0;points=[[0,0.5],[1,0.5]];portConstraint=eastwest;top=0;left=0;right=0;bottom=0;" parent="ghmF97qPjCxjDa39pvIn-4" vertex="1">
          <mxGeometry y="90" width="270" height="140" as="geometry" />
        </mxCell>
        <mxCell id="ghmF97qPjCxjDa39pvIn-12" value="" style="shape=partialRectangle;connectable=0;fillColor=none;top=0;left=0;bottom=0;right=0;editable=1;overflow=hidden;" parent="ghmF97qPjCxjDa39pvIn-11" vertex="1">
          <mxGeometry width="30" height="140" as="geometry">
            <mxRectangle width="30" height="140" as="alternateBounds" />
          </mxGeometry>
        </mxCell>
        <mxCell id="ghmF97qPjCxjDa39pvIn-13" value="author_type varchar(20) NOT NULL&#xa;&#xa;quartile bit(1) NOT NULL&#xa;&#xa;journal_name varchar(50) NOT NULL&#xa;&#xa;publication_year bit(4) NOT NULL&#xa;&#xa;published_platform varchar(20) NOT NULL" style="shape=partialRectangle;connectable=0;fillColor=none;top=0;left=0;bottom=0;right=0;align=left;spacingLeft=6;overflow=hidden;" parent="ghmF97qPjCxjDa39pvIn-11" vertex="1">
          <mxGeometry x="30" width="240" height="140" as="geometry">
            <mxRectangle width="240" height="140" as="alternateBounds" />
          </mxGeometry>
        </mxCell>
        <mxCell id="CSfrUNltyaViqE1sJyTJ-8" value="" style="edgeStyle=entityRelationEdgeStyle;fontSize=12;html=1;endArrow=ERmandOne;startArrow=ERmandOne;rounded=0;exitX=1;exitY=0.5;exitDx=0;exitDy=0;entryX=0;entryY=0.5;entryDx=0;entryDy=0;" edge="1" parent="1" source="C-vyLk0tnHw3VtMMgP7b-13" target="Tg3tCqWO-wnEFZZeCLN1-129">
          <mxGeometry width="100" height="100" relative="1" as="geometry">
            <mxPoint x="465" y="480" as="sourcePoint" />
            <mxPoint x="425" y="150" as="targetPoint" />
          </mxGeometry>
        </mxCell>
        <mxCell id="CSfrUNltyaViqE1sJyTJ-11" value="" style="edgeStyle=entityRelationEdgeStyle;fontSize=12;html=1;endArrow=ERoneToMany;rounded=0;entryX=0;entryY=0.5;entryDx=0;entryDy=0;exitX=1;exitY=1;exitDx=0;exitDy=0;" edge="1" parent="1" source="C-vyLk0tnHw3VtMMgP7b-13" target="Tg3tCqWO-wnEFZZeCLN1-54">
          <mxGeometry width="100" height="100" relative="1" as="geometry">
            <mxPoint x="155" y="410" as="sourcePoint" />
            <mxPoint x="255" y="310" as="targetPoint" />
          </mxGeometry>
        </mxCell>
        <mxCell id="CSfrUNltyaViqE1sJyTJ-13" value="" style="edgeStyle=entityRelationEdgeStyle;fontSize=12;html=1;endArrow=ERoneToMany;rounded=0;entryX=0;entryY=0.5;entryDx=0;entryDy=0;exitX=1;exitY=1;exitDx=0;exitDy=0;" edge="1" parent="1" source="C-vyLk0tnHw3VtMMgP7b-13" target="Tg3tCqWO-wnEFZZeCLN1-66">
          <mxGeometry width="100" height="100" relative="1" as="geometry">
            <mxPoint x="185" y="390" as="sourcePoint" />
            <mxPoint x="285" y="290" as="targetPoint" />
          </mxGeometry>
        </mxCell>
        <mxCell id="CSfrUNltyaViqE1sJyTJ-14" value="" style="edgeStyle=entityRelationEdgeStyle;fontSize=12;html=1;endArrow=ERoneToMany;rounded=0;entryX=0;entryY=0.5;entryDx=0;entryDy=0;exitX=1;exitY=1;exitDx=0;exitDy=0;" edge="1" parent="1" source="C-vyLk0tnHw3VtMMgP7b-13" target="Tg3tCqWO-wnEFZZeCLN1-118">
          <mxGeometry width="100" height="100" relative="1" as="geometry">
            <mxPoint x="295" y="440" as="sourcePoint" />
            <mxPoint x="395" y="340" as="targetPoint" />
          </mxGeometry>
        </mxCell>
        <mxCell id="CSfrUNltyaViqE1sJyTJ-15" value="" style="edgeStyle=entityRelationEdgeStyle;fontSize=12;html=1;endArrow=ERmandOne;startArrow=ERmandOne;rounded=0;exitX=0;exitY=0.5;exitDx=0;exitDy=0;entryX=1;entryY=0.5;entryDx=0;entryDy=0;" edge="1" parent="1" source="Tg3tCqWO-wnEFZZeCLN1-140" target="C-vyLk0tnHw3VtMMgP7b-13">
          <mxGeometry width="100" height="100" relative="1" as="geometry">
            <mxPoint x="305" y="490" as="sourcePoint" />
            <mxPoint x="285" y="230" as="targetPoint" />
          </mxGeometry>
        </mxCell>
        <mxCell id="CSfrUNltyaViqE1sJyTJ-16" value="" style="edgeStyle=entityRelationEdgeStyle;fontSize=12;html=1;endArrow=ERmandOne;startArrow=ERmandOne;rounded=0;exitX=1;exitY=0.5;exitDx=0;exitDy=0;entryX=0;entryY=0.5;entryDx=0;entryDy=0;" edge="1" parent="1" source="C-vyLk0tnHw3VtMMgP7b-13" target="7m5NMQ4qwO3rlpRu4f6F-7">
          <mxGeometry width="100" height="100" relative="1" as="geometry">
            <mxPoint x="325" y="130" as="sourcePoint" />
            <mxPoint x="425" y="30" as="targetPoint" />
          </mxGeometry>
        </mxCell>
        <mxCell id="CSfrUNltyaViqE1sJyTJ-17" value="" style="edgeStyle=entityRelationEdgeStyle;fontSize=12;html=1;endArrow=ERoneToMany;rounded=0;entryX=0;entryY=0.5;entryDx=0;entryDy=0;" edge="1" parent="1" target="7m5NMQ4qwO3rlpRu4f6F-42">
          <mxGeometry width="100" height="100" relative="1" as="geometry">
            <mxPoint x="555" y="175" as="sourcePoint" />
            <mxPoint x="635" y="180" as="targetPoint" />
          </mxGeometry>
        </mxCell>
        <mxCell id="CSfrUNltyaViqE1sJyTJ-18" value="" style="edgeStyle=entityRelationEdgeStyle;fontSize=12;html=1;endArrow=ERoneToMany;rounded=0;exitX=1;exitY=0.5;exitDx=0;exitDy=0;entryX=0;entryY=0.5;entryDx=0;entryDy=0;" edge="1" parent="1" source="Tg3tCqWO-wnEFZZeCLN1-140" target="7m5NMQ4qwO3rlpRu4f6F-18">
          <mxGeometry width="100" height="100" relative="1" as="geometry">
            <mxPoint x="705" y="320" as="sourcePoint" />
            <mxPoint x="805" y="220" as="targetPoint" />
          </mxGeometry>
        </mxCell>
        <mxCell id="CSfrUNltyaViqE1sJyTJ-19" value="" style="edgeStyle=entityRelationEdgeStyle;fontSize=12;html=1;endArrow=ERmandOne;startArrow=ERmandOne;rounded=0;entryX=0;entryY=0.5;entryDx=0;entryDy=0;exitX=1;exitY=0.5;exitDx=0;exitDy=0;" edge="1" parent="1" source="C-vyLk0tnHw3VtMMgP7b-13" target="7m5NMQ4qwO3rlpRu4f6F-77">
          <mxGeometry width="100" height="100" relative="1" as="geometry">
            <mxPoint x="225" y="220" as="sourcePoint" />
            <mxPoint x="205" y="340" as="targetPoint" />
          </mxGeometry>
        </mxCell>
        <mxCell id="CSfrUNltyaViqE1sJyTJ-20" value="" style="edgeStyle=entityRelationEdgeStyle;fontSize=12;html=1;endArrow=ERmandOne;startArrow=ERmandOne;rounded=0;exitX=1;exitY=0.5;exitDx=0;exitDy=0;entryX=0;entryY=0.5;entryDx=0;entryDy=0;" edge="1" parent="1" source="C-vyLk0tnHw3VtMMgP7b-13" target="Tg3tCqWO-wnEFZZeCLN1-78">
          <mxGeometry width="100" height="100" relative="1" as="geometry">
            <mxPoint x="465" y="380" as="sourcePoint" />
            <mxPoint x="565" y="280" as="targetPoint" />
          </mxGeometry>
        </mxCell>
      </root>
    </mxGraphModel>
  </diagram>
</mxfile>
